<?xml version="1.0" encoding="UTF-8"?><svg id="Layer_1" xmlns="http://www.w3.org/2000/svg" viewBox="0 0 256.73 50"><defs><style>.cls-1{fill:#000063;}.cls-1,.cls-2{stroke-width:0px;}.cls-2{fill:#2aaeff;}</style></defs><path class="cls-1" d="M0,46.22V3.77C0,1.97,1.46.51,3.27.51h.34c1.8,0,3.27,1.46,3.27,3.27v42.45c0,1.8-1.46,3.27-3.27,3.27h-.34c-1.8,0-3.27-1.46-3.27-3.27ZM.68,27.22h0c0-1.8,1.6-3.27,3.58-3.27h13.57c2.46,0,4.43-.77,5.92-2.32s2.23-3.58,2.23-6.1-.74-4.62-2.23-6.17-3.46-2.32-5.92-2.32H4.26c-1.98,0-3.58-1.46-3.58-3.27h0C.68,1.97,2.28.51,4.26.51h13.32c3.25,0,6.07.62,8.48,1.87,2.41,1.25,4.28,2.99,5.63,5.24,1.34,2.25,2.01,4.89,2.01,7.92s-.67,5.64-2.01,7.88c-1.34,2.25-3.22,3.99-5.63,5.22-2.41,1.24-5.24,1.85-8.48,1.85H4.26c-1.98,0-3.58-1.46-3.58-3.27Z"/><path class="cls-1" d="M53.95,50c-5.01,0-8.77-.89-11.27-2.66-2.51-1.77-3.76-4.49-3.76-8.15s1.15-6.08,3.44-7.8c2.29-1.72,5.74-2.58,10.33-2.58h9.72c1.07,0,1.96.7,2.05,1.61l.2,2c.1,1.03-.85,1.91-2.05,1.91h-9.88c-2.07,0-3.63.4-4.68,1.2-1.05.8-1.57,2.02-1.57,3.66,0,1.77.69,3.09,2.09,3.94,1.39.85,3.48,1.28,6.26,1.28,3.04,0,5.33-.28,6.85-.84.02,0,.03-.01.05-.02,1.26-.47,2.7.14,2.9,1.31l.05.3c.08.49-.09.99-.45,1.38-.6.64-1.29,1.19-2.07,1.65-1.05.61-2.25,1.06-3.6,1.36-1.35.3-2.88.46-4.58.46ZM62.1,49.49c-.97,0-1.76-.79-1.76-1.76v-20.41c0-2.29-.61-4.07-1.84-5.34-1.22-1.27-2.96-1.9-5.21-1.9-1.37,0-2.72.21-4.06.62-.97.3-1.86.7-2.68,1.19-.59.35-1.32.33-1.89-.06l-2.28-1.56c-.97-.66-1.04-2.08-.13-2.82,1.03-.84,2.24-1.55,3.61-2.11,2.17-.89,4.58-1.33,7.23-1.33,4.38,0,7.77,1.13,10.17,3.4,2.4,2.27,3.6,5.47,3.6,9.6v20.71c0,.97-.79,1.76-1.76,1.76h-3.01Z"/><path class="cls-1" d="M77.32,48.11V15.91c0-.76.62-1.38,1.38-1.38h4.1c.76,0,1.38.62,1.38,1.38v32.2c0,.76-.62,1.38-1.38,1.38h-4.1c-.76,0-1.38-.62-1.38-1.38ZM96.29,23.04c-.48.61-1.4.74-2.05.29-.41-.29-.87-.53-1.37-.72-.98-.38-2.12-.57-3.41-.57-2.32,0-4.12.6-5.4,1.8-.01.01-.03.02-.04.04-.88.84-2.39.41-2.52-.76l-.06-.57c-.03-.28.03-.57.17-.82,1.09-1.88,2.5-3.37,4.21-4.46,1.83-1.17,3.84-1.75,6.05-1.75,1.7,0,3.23.23,4.61.69.88.3,1.7.68,2.44,1.16.68.44.81,1.33.32,1.95l-2.94,3.74Z"/><path class="cls-1" d="M119.13,50c-3.1,0-5.91-.46-8.44-1.37-1.35-.48-2.62-1.1-3.82-1.84-1.69-1.05-2.1-3.32-.85-4.87l.07-.08c1.03-1.27,2.83-1.58,4.23-.73,1.11.67,2.21,1.22,3.3,1.64,1.85.72,3.69,1.08,5.51,1.08,2.72,0,4.76-.42,6.11-1.26,1.36-.84,2.04-2.11,2.04-3.79,0-1.3-.45-2.22-1.36-2.76-.91-.54-2.1-.89-3.57-1.06-1.47-.17-3.05-.31-4.73-.42-1.42-.11-2.82-.29-4.21-.52-1.39-.24-2.66-.66-3.81-1.28-1.15-.62-2.06-1.53-2.75-2.75s-1.03-2.84-1.03-4.88c0-3.71,1.13-6.48,3.4-8.32,2.27-1.84,5.65-2.76,10.14-2.76,2.74,0,5.29.37,7.65,1.11,1.08.34,2.12.76,3.14,1.26,1.91.94,2.46,3.4,1.11,5.04h0c-.96,1.17-2.61,1.54-3.96.85-1-.51-1.99-.93-2.97-1.26-1.7-.56-3.35-.84-4.97-.84-2.34,0-4.09.4-5.26,1.2-1.17.8-1.75,1.99-1.75,3.59,0,1.06.4,1.81,1.21,2.27.81.46,1.88.76,3.2.89,1.33.13,2.75.26,4.28.37,1.46.09,2.94.25,4.43.49,1.49.24,2.87.69,4.13,1.36s2.27,1.67,3.03,3c.76,1.33,1.15,3.13,1.15,5.42,0,3.75-1.22,6.56-3.66,8.42-2.44,1.86-6.1,2.8-11,2.8Z"/><path class="cls-1" d="M142.55,4.09v-.3c0-1.81,1.47-3.29,3.29-3.29h.3c1.81,0,3.29,1.47,3.29,3.29v.3c0,1.81-1.47,3.29-3.29,3.29h-.3c-1.81,0-3.29-1.47-3.29-3.29ZM142.55,46.21v-28.4c0-1.81,1.47-3.29,3.29-3.29h.3c1.81,0,3.29,1.47,3.29,3.29v28.4c0,1.81-1.47,3.29-3.29,3.29h-.3c-1.81,0-3.29-1.47-3.29-3.29Z"/><path class="cls-2" d="M179.17,23.11h12.74c1.17,0,2.12.95,2.12,2.12v6.44c0,3.68-.71,6.9-2.14,9.65-1.43,2.75-3.42,4.88-5.98,6.4-2.56,1.52-5.57,2.27-9.03,2.27s-6.52-.71-9.13-2.14c-2.61-1.43-4.63-3.44-6.06-6.03-1.44-2.59-2.16-5.62-2.16-9.08v-14.45c0-3.68.71-6.9,2.14-9.64,1.43-2.74,3.42-4.87,5.98-6.38,2.56-1.52,5.57-2.27,9.03-2.27,2.85,0,5.45.61,7.8,1.82,2.35,1.21,4.32,2.91,5.91,5.09,1.06,1.44,1.89,3.05,2.49,4.82.47,1.38-.55,2.83-2.01,2.83h-3.13c-.89,0-1.68-.56-1.98-1.4-.69-1.87-1.77-3.34-3.24-4.43-1.82-1.35-3.76-2.02-5.83-2.02-3.05,0-5.5,1.06-7.34,3.18-1.84,2.12-2.76,4.92-2.76,8.41v14.45c0,3.19.94,5.75,2.83,7.67,1.89,1.92,4.38,2.88,7.48,2.88s5.5-1.01,7.34-3.03,2.76-4.84,2.76-8.46h0c0-1.17-.95-2.12-2.12-2.12h-5.69c-1.17,0-2.12-.95-2.12-2.12v-2.33c0-1.17.95-2.12,2.12-2.12Z"/><path class="cls-2" d="M204.47,4.53v-1.18c0-1.57,1.27-2.85,2.85-2.85h1.18c1.57,0,2.85,1.27,2.85,2.85v1.18c0,1.57-1.27,2.85-2.85,2.85h-1.18c-1.57,0-2.85-1.27-2.85-2.85ZM204.47,46.65v-29.28c0-1.57,1.27-2.85,2.85-2.85h1.18c1.57,0,2.85,1.27,2.85,2.85v29.28c0,1.57-1.27,2.85-2.85,2.85h-1.18c-1.57,0-2.85-1.27-2.85-2.85Z"/><path class="cls-2" d="M219.1,17.46v-.02c0-1.61,1.31-2.92,2.92-2.92h11.64c1.61,0,2.92,1.31,2.92,2.92v.02c0,1.61-1.31,2.92-2.92,2.92h-11.64c-1.61,0-2.92-1.31-2.92-2.92ZM225.72,49.49c-1.61,0-2.92-1.31-2.92-2.92V9.77c0-3.08.71-5.39,2.12-6.94s3.62-2.32,6.6-2.32h2.13c1.61,0,2.92,1.31,2.92,2.92v.69c0,1.61-1.31,2.92-2.92,2.92h-2c-.7,0-1.2.26-1.52.79-.32.53-.47,1.15-.47,1.87v36.87c0,1.61-1.31,2.92-2.92,2.92h-1.03Z"/><path class="cls-2" d="M240.96,17.62h0c0-1.71,1.39-3.1,3.1-3.1h9.57c1.71,0,3.1,1.39,3.1,3.1h0c0,1.71-1.39,3.1-3.1,3.1h-9.57c-1.71,0-3.1-1.39-3.1-3.1ZM252.75,49.66c-2.88,0-4.96-.8-6.25-2.39-1.29-1.59-1.94-3.89-1.94-6.87V7.45c0-1.71,1.39-3.1,3.1-3.1h.67c1.71,0,3.1,1.39,3.1,3.1v33.02c0,.83.17,1.48.5,1.95s.83.71,1.48.71h.2c1.71,0,3.1,1.39,3.1,3.1v.34c0,1.71-1.39,3.1-3.1,3.1h-.88Z"/></svg>